<svg width="119" height="132" viewBox="0 0 72 80" fill="none" xmlns="http://www.w3.org/2000/svg">
<g clip-path="url(#clip0_406480_3757)">
<path fill-rule="evenodd" clip-rule="evenodd" d="M18.6782 9.29419C18.8396 9.01303 19.1974 8.91655 19.4774 9.07868L53.7069 28.9032C53.9869 29.0653 54.0829 29.4247 53.9215 29.7058C53.7601 29.987 53.4023 30.0835 53.1223 29.9213L18.8928 10.0968C18.6128 9.93469 18.5168 9.57534 18.6782 9.29419Z" fill="black"/>
<path fill-rule="evenodd" clip-rule="evenodd" d="M32.1011 1.12491C33.3777 0.387964 34.8258 0 36.2999 0C37.7739 0 39.222 0.387964 40.4986 1.12491C40.499 1.12515 40.4994 1.12538 40.4999 1.12561L67.7999 16.7288C69.0755 17.4654 70.1351 18.5247 70.8723 19.8003C71.6095 21.0758 71.9983 22.5229 71.9998 23.9962V55.2038C71.9983 56.6771 71.6095 58.1241 70.8723 59.3997C70.1351 60.6753 69.0755 61.7346 67.7999 62.4712L67.7975 62.4726L40.4999 78.0744C40.4996 78.0745 40.4994 78.0746 40.4992 78.0748C39.2224 78.8119 37.7741 79.2 36.2999 79.2C34.8256 79.2 33.3773 78.8119 32.1005 78.0748C32.1003 78.0746 32.1001 78.0745 32.0999 78.0744L4.80217 62.4726L4.79985 62.4712C3.52416 61.7346 2.46457 60.6753 1.72739 59.3997C0.990213 58.1241 0.601364 56.6771 0.599854 55.2038V23.9962C0.601364 22.5229 0.990213 21.0758 1.72739 19.8003C2.46457 18.5247 3.52416 17.4654 4.79985 16.7288L4.80217 16.7274L32.0999 1.12561C32.1003 1.12538 32.1007 1.12515 32.1011 1.12491ZM36.2999 1.20024C35.036 1.20024 33.7944 1.53299 32.6999 2.16505L32.6975 2.16638L5.39985 17.7682C5.39945 17.7684 5.39904 17.7687 5.39864 17.7689C4.30572 18.4003 3.39795 19.308 2.76631 20.4009C2.1345 21.4942 1.8012 22.7344 1.79985 23.9972V55.2028C1.8012 56.4656 2.1345 57.7058 2.76631 58.7991C3.39791 59.892 4.30562 60.7996 5.39845 61.431C5.39892 61.4313 5.39939 61.4315 5.39985 61.4318L32.6999 77.0349C33.7944 77.667 35.036 77.9998 36.2999 77.9998C37.5637 77.9998 38.8053 77.667 39.8999 77.0349L39.9022 77.0336L67.1999 61.4318C67.2003 61.4315 67.2008 61.4313 67.2012 61.431C68.2941 60.7996 69.2018 59.892 69.8334 58.7991C70.4653 57.7057 70.7986 56.4654 70.7999 55.2025V23.9975C70.7986 22.7346 70.4653 21.4943 69.8334 20.4009C69.2018 19.308 68.294 18.4003 67.2011 17.7689C67.2007 17.7687 67.2003 17.7684 67.1999 17.7682L39.9022 2.16638L39.8999 2.16505C38.8053 1.53299 37.5637 1.20024 36.2999 1.20024Z" fill="black"/>
<path fill-rule="evenodd" clip-rule="evenodd" d="M1.8795 20.0924C2.04328 19.8123 2.40558 19.7166 2.68872 19.8786L35.9998 38.9373L69.3109 19.8786C69.594 19.7166 69.9563 19.8123 70.1201 20.0924C70.2839 20.3724 70.1871 20.7307 69.904 20.8927L36.2964 40.1211C36.1129 40.226 35.8867 40.226 35.7033 40.1211L2.0956 20.8927C1.81247 20.7307 1.71571 20.3724 1.8795 20.0924Z" fill="black"/>
<path fill-rule="evenodd" clip-rule="evenodd" d="M35.9999 39C36.3313 39 36.5999 39.2626 36.5999 39.5865V78.0135C36.5999 78.3374 36.3313 78.6 35.9999 78.6C35.6685 78.6 35.3999 78.3374 35.3999 78.0135V39.5865C35.3999 39.2626 35.6685 39 35.9999 39Z" fill="black"/>
</g>
<defs>
<clipPath id="clip0_406480_3757">
<rect width="71.4" height="79.2" fill="white" transform="translate(0.599854)"/>
</clipPath>
</defs>
</svg>
