<svg width="26" height="48" viewBox="0 0 26 48" fill="none" xmlns="http://www.w3.org/2000/svg">
<path d="M5.60072 28.6677L10.9737 16.2925H12.7762V19.7936L8.96317 28.6677H11.8056V27.0731C11.8056 26.6849 12.4527 26.6571 12.7762 26.6918V31.5795C11.8888 31.5795 11.7594 31.279 11.8056 31.1288V29.7423H8.4432L0.123747 48.3224H-0.188232L1.92629 41.9095C1.92629 41.9095 0.0544183 41.1815 0.678377 39.6216C1.30234 38.0617 5.04609 29.7423 5.04609 29.7423H0.678377V28.6677H5.60072Z" fill="#FF9900"/>
<path d="M19.6051 28.6677L14.2322 16.2925H12.4296V19.7936L16.2427 28.6677H13.4002V27.0731C13.4002 26.6849 12.7531 26.6571 12.4296 26.6918V31.5795C13.317 31.5795 13.4464 31.279 13.4002 31.1288V29.7423H16.7627L25.0821 48.3224H25.3941L23.2796 41.9095C23.2796 41.9095 25.1514 41.1815 24.5275 39.6216C23.9035 38.0617 20.1598 29.7423 20.1598 29.7423H24.5275V28.6677H19.6051Z" fill="#FF9900"/>
<path fill-rule="evenodd" clip-rule="evenodd" d="M12.6376 14.4897C14.6669 14.4897 16.312 12.8446 16.312 10.8153C16.312 8.78596 14.6669 7.14086 12.6376 7.14086C10.6083 7.14086 8.96317 8.78596 8.96317 10.8153C8.96317 12.8446 10.6083 14.4897 12.6376 14.4897ZM12.6376 16.5002C15.7773 16.5002 18.3226 13.955 18.3226 10.8153C18.3226 7.67557 15.7773 5.13033 12.6376 5.13033C9.49788 5.13033 6.95264 7.67557 6.95264 10.8153C6.95264 13.955 9.49788 16.5002 12.6376 16.5002Z" fill="#333333"/>
<path d="M11.5977 0H13.6775V5.47697H11.5977V0Z" fill="#333333"/>
</svg>
